<svg xmlns="http://www.w3.org/2000/svg" xmlns:xlink="http://www.w3.org/1999/xlink"><symbol id="detective"><path d="M17.5 11.02c-.38 0-.68.36-.68.8 0 .44.3.8.68.8.38 0 .68-.36.68-.8 0-.44-.3-.8-.68-.8Z" fill="#00B2FF"/><path d="M32.95 15.81h-2.66C28.89 11.13 26.85 2.92 23.17.6c-1.85-1.16-3.59-.35-4.24 1.3-.28.7-.84 1.06-1.43 1.06-.6 0-1.15-.37-1.43-1.06-.63-1.6-2.33-2.48-4.1-1.47C8.21 2.56 6.11 11.1 4.7 15.8H2.05C.92 15.81 0 16.9 0 18.21c0 1.32.92 2.4 2.05 2.4h30.9c1.13 0 2.05-1.07 2.05-2.4 0-1.32-.92-2.4-2.05-2.4ZM7.1 12.61h7.66c.37 0 .68-.35.68-.8 0-.43-.3-.8-.68-.8H7.59c2.06-6.65 3.99-8.58 4.97-9.14 1.07-.61 1.96-.1 2.27.7.5 1.26 1.54 2 2.67 2s2.17-.74 2.67-2c.32-.82 1.21-1.28 2.35-.56.99.62 2.9 2.62 4.89 9h-7.18c-.37 0-.68.37-.68.8 0 .45.3.8.68.8h7.66l.95 3.2H6.16l.95-3.2Zm25.84 6.4H2.05c-.38 0-.68-.36-.68-.8 0-.44.3-.8.68-.8h30.9c.38 0 .68.36.68.8 0 .44-.3.8-.68.8ZM16.13 23.8H5.2c-.38 0-.69.37-.69.8v3.2c0 3.97 2.76 7.2 6.15 7.2 2.57 0 4.85-1.85 5.75-4.63a2.28 2.28 0 0 1 2.18 0c.9 2.78 3.18 4.63 5.75 4.63 3.39 0 6.15-3.23 6.15-7.2v-3.2c0-.43-.3-.8-.69-.8H18.87c-.38 0-.69.37-.69.8v.8h-1.36v-.8c0-.43-.31-.8-.69-.8Zm-5.47 9.6c-2.63 0-4.78-2.5-4.78-5.6v-2.4h9.57v2.4c0 3.1-2.14 5.6-4.79 5.6Zm8.9-8h9.56v2.4c0 3.1-2.15 5.6-4.78 5.6-2.66 0-4.79-2.5-4.79-5.6v-2.4ZM18.17 27v.8c0 .26.02.52.04.77-.48-.1-.96-.1-1.44 0 .02-.25.04-.5.04-.76V27h1.36Z" fill="#00B2FF"/><path d="M10.66 30.2c-1.13 0-2.05-1.07-2.05-2.4 0-.44-.3-.8-.68-.8-.38 0-.68.36-.68.8 0 2.2 1.53 4 3.41 4 .38 0 .69-.36.69-.8 0-.44-.3-.8-.69-.8ZM24.34 31.8c1.88 0 3.41-1.8 3.41-4 0-.44-.3-.8-.68-.8-.38 0-.68.36-.68.8 0 1.33-.92 2.4-2.05 2.4-.38 0-.69.36-.69.8 0 .44.3.8.69.8Z" fill="#00B2FF"/></symbol><symbol id="email"><path d="M27.558 10H12.446C11.096 10 10 11.441 10 13.214v13.572C10 28.56 11.097 30 12.446 30h15.108C28.904 30 30 28.559 30 26.786V13.22C30.004 11.446 28.907 10 27.558 10Zm1.329 16.786c0 .963-.596 1.746-1.329 1.746H12.446c-.733 0-1.329-.783-1.329-1.746V13.22c0-.962.596-1.745 1.329-1.745h15.108c.733 0 1.329.783 1.329 1.745v13.567h.004Z" fill="#00B2FF"/><path d="m22.613 19.831 4.892-5.764c.227-.271.248-.734.041-1.038-.207-.3-.559-.326-.79-.054L20.01 20.93l-1.316-1.544c-.004-.006-.008-.011-.008-.017a.942.942 0 0 0-.091-.103l-5.355-6.297c-.232-.272-.583-.245-.79.06-.207.304-.186.767.045 1.038l4.95 5.813-4.929 6.064c-.223.277-.236.739-.025 1.038.112.152.26.234.41.234a.495.495 0 0 0 .38-.196l5.004-6.15 1.357 1.593a.49.49 0 0 0 .373.185.49.49 0 0 0 .372-.19l1.395-1.642 4.974 6.21a.493.493 0 0 0 .384.2.505.505 0 0 0 .406-.228c.211-.293.203-.76-.02-1.038l-4.913-6.129Z" fill="#00B2FF"/></symbol><symbol id="hired"><path d="M31.26 27.9c.38-.53.6-1.16.6-1.85v-4.1c0-.38-.3-.69-.68-.69h-3.06a2.56 2.56 0 0 0-2.56 2.56v2.23c0 .69.22 1.32.6 1.84a4.4 4.4 0 0 0-1.34.45 5.82 5.82 0 0 0-4.3-2.56h-.01a4.02 4.02 0 0 0 1.03-2.7V17.5c0-.38-.31-.68-.69-.68H16.7a3.24 3.24 0 0 0-3.24 3.23v3.03c0 1.04.4 1.98 1.03 2.7h-.02a5.82 5.82 0 0 0-4.3 2.56 4.4 4.4 0 0 0-1.33-.45c.38-.52.6-1.15.6-1.84v-4.1c0-.38-.3-.69-.68-.69H5.7a2.56 2.56 0 0 0-2.56 2.56v2.23c0 .69.22 1.32.6 1.84A4.46 4.46 0 0 0 0 32.3v2.03c0 .37.3.68.68.68h33.64c.37 0 .68-.3.68-.68v-2.03a4.46 4.46 0 0 0-3.74-4.4ZM4.51 23.81c0-.66.53-1.2 1.19-1.2h2.37v.84c0 .4-.33.74-.74.74H4.51v-.38Zm0 1.75h2.82c.26 0 .51-.05.74-.14v.62a1.78 1.78 0 0 1-3.56 0v-.48Zm2.22 3.63-.44.44-.44-.44h.88Zm2.47 2.36v2.07H1.37V32.3a3.1 3.1 0 0 1 2.59-3.05L5.8 31.1a.68.68 0 0 0 .96 0l1.85-1.85c.33.05.64.16.94.31-.24.63-.36 1.3-.36 2.01Zm8.3-5.8a2.67 2.67 0 0 1-2.67-2.68v-.9h4.09c.45 0 .88-.12 1.25-.32v1.22c0 1.47-1.2 2.67-2.67 2.67Zm1.2 1.36-1.2 1.19-1.2-1.2h2.4Zm-3.87-7.07c0-1.03.84-1.87 1.87-1.87h3.47v1.38c0 .7-.56 1.25-1.25 1.25h-4.09v-.76Zm9.6 13.58H10.57v-1.36h4.45a.68.68 0 1 0 0-1.37h-4.4a4.45 4.45 0 0 1 3.8-3.74l2.6 2.6a.68.68 0 0 0 .96 0l2.6-2.6a4.45 4.45 0 0 1 3.85 4.4v2.07Zm2.5-9.8c0-.67.53-1.2 1.2-1.2h2.36v.83c0 .4-.33.74-.74.74h-2.82v-.38Zm0 1.74h2.82c.26 0 .51-.05.74-.14v.62a1.78 1.78 0 0 1-3.56 0v-.48Zm2.22 3.63-.44.44-.44-.44h.88Zm-3.35 4.43v-2.07c0-.7-.12-1.38-.36-2 .3-.16.61-.27.94-.32l1.85 1.85a.68.68 0 0 0 .96 0l1.85-1.85a3.1 3.1 0 0 1 2.6 3.05v1.34H25.8ZM20.87 4.47a.68.68 0 0 0-.97 0l-3.35 3.35-1.45-1.45a.68.68 0 1 0-.97.97l1.93 1.93a.68.68 0 0 0 .97 0l3.84-3.84a.68.68 0 0 0 0-.96Z" fill="#00B2FF"/><path d="M20.3.6a.68.68 0 0 0-.56 1.24 5.51 5.51 0 1 1-4.5.01.68.68 0 1 0-.56-1.24 6.88 6.88 0 0 0 2.82 13.13A6.88 6.88 0 0 0 20.3.59Z" fill="#00B2FF"/><path d="M17.52 0h-.02a.68.68 0 0 0 0 1.37h.02a.68.68 0 0 0 0-1.37ZM17.98 31.1a.69.69 0 0 0-.96 0 .69.69 0 0 0 0 .97.69.69 0 0 0 .96 0 .69.69 0 0 0 0-.97Z" fill="#00B2FF"/></symbol><symbol id="icon-close" viewBox="0 0 20 20"><path d="M.293 18.291a1 1 0 101.414 1.414L10 11.413l8.292 8.292a1 1 0 101.414-1.414l-8.292-8.292 8.292-8.292A1 1 0 1018.291.293L9.999 8.585 1.707.293A1 1 0 10.293 1.707L8.585 10 .293 18.291z" fill="#FFFFFF"/></symbol><symbol id="icon-facebook"><path fill-rule="evenodd" clip-rule="evenodd" d="M35 20c0-8.284-6.715-15-15-15S5 11.716 5 20c0 8.285 6.715 15 15 15s15-6.715 15-15Zm-11.24-4.673h-1.934c-.52 0-.886.44-.886.99v.861h2.761l-.447 2.797H20.94v7.496h-2.825v-7.496h-1.875v-2.797h1.875v-1.426h.005c.05-1.625.614-3.173 3.368-3.27v-.011h2.272v2.856Z" fill="#F8FDFF"/></symbol><symbol id="icon-minus" viewBox="0 0 15 15">
<path d="M0 7H15V8H0V7Z" fill="#F8FDFF"/>
</symbol><symbol id="icon-ok"><path d="M20.171 17.643c1.157 0 2.057-.965 2.036-2.014.021-1.05-.857-2.036-2.015-2.036-1.114 0-2.035.9-2.035 2.014 0 1.114.9 2.036 2.014 2.036Z" fill="#F8FDFF"/><path d="M20 5C11.729 5 5 11.729 5 20c0 8.293 6.729 15 15 15 8.293 0 15-6.729 15-15 .021-8.271-6.707-15-15-15Zm.214 5.679c2.7 0 4.929 2.228 4.907 4.95 0 2.742-2.25 4.95-4.992 4.907-2.7-.043-4.865-2.25-4.865-4.929a4.934 4.934 0 0 1 4.95-4.928Zm5.507 11.571c0 .043-.021.064-.021.107a1.401 1.401 0 0 1-.643 1.007c-.236.15-.493.3-.75.429a9.662 9.662 0 0 1-2.036.75c-.085.021-.085.021-.021.086l1.178 1.178 1.5 1.5a1.43 1.43 0 0 1-.385 2.314c-.15.086-.322.108-.493.15h-.279c-.021 0-.043 0-.043-.021-.342-.043-.62-.214-.878-.45l-2.593-2.593c-.064-.064-.064-.064-.129 0l-2.614 2.614c-.15.15-.3.258-.493.343-.128.065-.278.086-.407.107h-.278c-.043 0-.065-.021-.107-.021-.579-.107-.965-.429-1.136-.986-.172-.557-.043-1.05.364-1.457l1.072-1.071 1.585-1.586c.064-.064.064-.064-.021-.086-.022 0-.064-.021-.086-.021a9.26 9.26 0 0 1-2.678-1.136c-.493-.321-.729-.793-.665-1.371.107-1.072 1.307-1.65 2.207-1.072.172.107.322.193.515.279a6.1 6.1 0 0 0 3.128.643 6.069 6.069 0 0 0 1.607-.3c.515-.172.965-.407 1.436-.665a1.445 1.445 0 0 1 2.079.75c.043.129.064.236.085.365v.214Z" fill="#F8FDFF"/></symbol><symbol id="icon-plus" viewBox="0 0 15 15">
<path fill-rule="evenodd" clip-rule="evenodd" d="M7.96875 7.03125V0H7.03125V7.03125H0V7.96875H7.03125V15H7.96875V7.96875H15V7.03125H7.96875Z" fill="#F8FDFF"/>
</symbol><symbol id="icon-vk"><path d="M26.617 22.454c-1.235-1.181-1.323-1.181-.265-2.545C27.676 18.182 29.44 16 27.852 16h-2.911c-.53 0-.618.364-.794.818-.706 1.727-2.118 4-2.647 3.636-.53-.363-.265-1.727-.265-3.908a.722.722 0 0 0-.177-.728c-.176-.181-.44-.363-.706-.363-.44-.091-.882-.182-1.323-.182-1.676 0-2.823.727-2.206.818 1.147.182 1.059 2.727.794 3.818-.44 1.91-2.206-1.454-3-3.181a.865.865 0 0 0-.882-.728h-2.294c-.353 0-.618.091-.618.364 0 .454 2.206 4.909 4.236 7.181 2.029 2.182 4.058 2 5.47 2 .176 0 .353-.09.441-.182a.706.706 0 0 0 .177-.454c0-1.455.529-2.182 1.5-1.182 1.058 1.09 1.323 1.818 2.647 1.818h2.382c.617 0 .794-.182.794-.454.088-.637-.97-1.819-1.853-2.637ZM20.352 5.001c8.206.182 14.735 7 14.647 15.272-.088 8.272-6.882 14.817-15.088 14.726C11.617 34.91 5 28.272 5 20c.088-8.363 6.97-15.09 15.352-15Z" fill="#F8FDFF"/></symbol><symbol id="phone"><path d="M25.815 22.39c-.41-.427-.905-.655-1.43-.655-.519 0-1.018.224-1.445.65l-1.336 1.33c-.11-.06-.22-.114-.325-.17a5.407 5.407 0 0 1-.419-.223c-1.25-.793-2.388-1.828-3.479-3.166-.528-.667-.883-1.228-1.141-1.798.347-.317.668-.646.98-.962l.356-.36c.887-.886.887-2.034 0-2.92l-1.154-1.152c-.131-.131-.267-.267-.393-.402a20 20 0 0 0-.795-.785c-.41-.405-.9-.62-1.416-.62-.516 0-1.015.215-1.438.62l-.008.009-1.437 1.448a3.086 3.086 0 0 0-.918 1.963c-.101 1.232.263 2.38.542 3.131.684 1.845 1.707 3.555 3.233 5.387a19.889 19.889 0 0 0 6.624 5.18c.973.46 2.27 1.004 3.72 1.097.09.004.182.008.267.008.976 0 1.796-.35 2.439-1.047.004-.008.013-.012.017-.021.22-.266.473-.506.74-.764.181-.173.367-.355.55-.544.418-.435.637-.942.637-1.461 0-.523-.224-1.026-.65-1.448l-2.321-2.326Zm1.513 4.444c-.004 0-.004.004 0 0-.165.177-.334.338-.516.515-.274.262-.553.536-.816.844-.426.456-.93.671-1.589.671-.063 0-.131 0-.194-.004-1.256-.08-2.423-.57-3.298-.988a18.774 18.774 0 0 1-6.24-4.88c-1.44-1.734-2.405-3.338-3.043-5.06-.393-1.051-.537-1.87-.473-2.643.042-.493.232-.903.583-1.253l1.442-1.44c.207-.194.427-.3.642-.3.266 0 .482.16.617.296l.013.013c.258.24.503.49.761.755.131.135.266.27.401.41l1.155 1.152c.448.447.448.861 0 1.309-.123.122-.241.244-.364.363-.355.363-.693.7-1.061 1.03-.009.008-.017.012-.021.02-.364.364-.296.718-.22.959l.013.038c.3.726.723 1.41 1.365 2.224l.004.005c1.167 1.435 2.397 2.553 3.754 3.41.174.11.351.199.52.283.152.076.296.148.419.224.017.008.034.021.05.03a.917.917 0 0 0 .419.105c.35 0 .57-.22.642-.291l1.446-1.444c.144-.143.372-.317.639-.317.262 0 .477.165.608.309l.009.008 2.329 2.326c.435.43.435.874.004 1.321ZM20.81 14.758a5.363 5.363 0 0 1 2.916 1.51 5.378 5.378 0 0 1 1.514 2.913.567.567 0 0 0 .562.473.57.57 0 0 0 .567-.667 6.508 6.508 0 0 0-1.83-3.525 6.524 6.524 0 0 0-3.53-1.827.574.574 0 0 0-.66.464.564.564 0 0 0 .46.659ZM29.991 18.822a10.705 10.705 0 0 0-3.014-5.804 10.732 10.732 0 0 0-5.812-3.01.568.568 0 1 0-.186 1.124 9.61 9.61 0 0 1 5.195 2.688 9.557 9.557 0 0 1 2.693 5.188.567.567 0 0 0 .562.473.56.56 0 0 0 .562-.659Z" fill="#00B2FF"/></symbol><symbol id="stopwatch"><path d="m3.85 11.66-1.8-1.47a1.8 1.8 0 0 1 0-2.9 2.9 2.9 0 0 1 3.54 0L7.5 8.86c2-1.14 4.28-1.93 6.67-2.3V4.5H12.5c-.46 0-.83-.3-.83-.68V2.05C11.67.92 12.79 0 14.17 0h6.66c1.38 0 2.5.92 2.5 2.05v1.78c0 .38-.37.68-.83.68h-1.67v2.04a19.7 19.7 0 0 1 6.67 2.31L29.4 7.3a2.9 2.9 0 0 1 3.54 0c.97.8.97 2.1 0 2.9l-1.8 1.47A12.84 12.84 0 0 1 35 20.64C35 28.56 27.15 35 17.5 35S0 28.56 0 20.64c0-3.27 1.36-6.44 3.85-8.98Zm.56-3.4a.97.97 0 0 0-1.18 0 .6.6 0 0 0 0 .96l1.72 1.42c.4-.33.8-.64 1.22-.94L4.41 8.26Zm17.26-6.2c0-.39-.38-.7-.84-.7h-6.66c-.46 0-.84.31-.84.7v1.08h8.34V2.05ZM15.83 4.5v1.84c1.1-.08 2.23-.08 3.34 0V4.51h-3.34Zm15.94 3.75a.97.97 0 0 0-1.18 0L28.83 9.7c.42.3.83.6 1.22.94l1.72-1.42a.6.6 0 0 0 0-.96ZM17.5 33.63c8.73 0 15.83-5.82 15.83-12.99 0-3.15-1.4-6.2-3.93-8.57a15.2 15.2 0 0 0-2.32-1.77 17.8 17.8 0 0 0-9.58-2.64 17.8 17.8 0 0 0-9.58 2.64 15.2 15.2 0 0 0-2.32 1.77 11.73 11.73 0 0 0-3.93 8.57c0 7.17 7.1 13 15.83 13Z" fill="#F2F5F7"/><path d="M17.5 22.7c-1.38 0-2.5-.92-2.5-2.06 0-.89.7-1.65 1.67-1.93v-4.9c0-.38.37-.69.83-.69.46 0 .83.31.83.69v4.9C19.3 19 20 19.75 20 20.64c0 1.14-1.12 2.06-2.5 2.06Zm0-2.74c-.46 0-.83.3-.83.68 0 .38.37.69.83.69.46 0 .83-.3.83-.69 0-.37-.37-.68-.83-.68Z" fill="#F2F5F7"/><path d="M8.62 13.43a.6.6 0 0 1 .04-.03l.05-.04a13.34 13.34 0 0 1 5.25-2.55c.45-.1.9.1 1.04.46.13.36-.12.74-.56.85-1.46.35-2.82.96-3.98 1.78l.56.46a.6.6 0 0 1 0 .97.93.93 0 0 1-.6.2.93.93 0 0 1-.58-.2l-.56-.46a8.06 8.06 0 0 0-2.58 5.1h.8c.46 0 .83.3.83.67 0 .38-.37.69-.83.69h-.8a8.06 8.06 0 0 0 2.58 5.1l.56-.47a.97.97 0 0 1 1.18 0 .6.6 0 0 1 0 .97l-.56.46a12.07 12.07 0 0 0 6.2 2.12v-.66c0-.38.38-.69.84-.69.46 0 .83.31.83.69v.65c2.3-.14 4.46-.87 6.21-2.11l-.56-.46a.6.6 0 0 1 0-.97.97.97 0 0 1 1.18 0l.56.46a8.06 8.06 0 0 0 2.58-5.1h-.8c-.46 0-.83-.3-.83-.68 0-.37.37-.68.83-.68h.8a8.06 8.06 0 0 0-2.58-5.1l-.56.47a.93.93 0 0 1-.59.2.93.93 0 0 1-.59-.2.6.6 0 0 1 0-.97l.56-.46a11.75 11.75 0 0 0-3.98-1.78c-.44-.1-.69-.49-.56-.85.13-.36.6-.57 1.04-.46a13.34 13.34 0 0 1 5.3 2.59l.04.03A9.35 9.35 0 0 1 30 20.64a9.35 9.35 0 0 1-3.66 7.25l-.05.04a13.92 13.92 0 0 1-8.79 2.97c-3.31 0-6.43-1.06-8.8-2.97l-.04-.04-.04-.03A9.35 9.35 0 0 1 5 20.64a9.35 9.35 0 0 1 3.62-7.2Z" fill="#F2F5F7"/><path d="M17.5 11.76c-.46 0-.83-.3-.83-.69 0-.37.37-.68.83-.68.46 0 .83.3.83.68 0 .38-.37.69-.83.69Z" fill="#F2F5F7"/></symbol><symbol id="tag"><path d="M11.07 8.58a.69.69 0 0 0-.97 0 .69.69 0 0 0 0 .97.69.69 0 0 0 .97 0 .69.69 0 0 0 0-.97Z" fill="#00B2FF"/><path d="M34.8 2.86 33.95 2l.85-.84a.68.68 0 0 0-.97-.97l-.84.84-.83-.83a.68.68 0 0 0-.49-.2H20.1a3.4 3.4 0 0 0-2.42 1l-5.77 5.77a.68.68 0 0 0 .96.97l5.78-5.78c.39-.39.9-.6 1.45-.6H31.4l.63.64-2.53 2.54a2.8 2.8 0 1 0 .96.97L33 2.98l.64.64V14.9c0 .55-.22 1.06-.6 1.45L16.33 33.03a2.04 2.04 0 0 1-2.9 0L1.97 21.56a2.04 2.04 0 0 1 0-2.9l7.37-7.37a.68.68 0 0 0-.97-.97L1 17.69a3.4 3.4 0 0 0 0 4.84L12.47 34a3.41 3.41 0 0 0 4.84 0L34 17.32c.65-.65 1-1.5 1-2.42L35 3.34a.68.68 0 0 0-.2-.48Zm-5.74 5.1a1.42 1.42 0 0 1-2.03 0 1.43 1.43 0 0 1 1.43-2.38l-.8.79a.68.68 0 0 0 .97.96l.8-.78c.13.48.01 1.03-.37 1.41Z" fill="#00B2FF"/><path d="M29.2 13.76 21.23 5.8a2.71 2.71 0 0 0-3.82 0L4.8 18.4a2.69 2.69 0 0 0 0 3.83l7.97 7.97a2.69 2.69 0 0 0 3.82 0L29.2 17.6a2.69 2.69 0 0 0 0-3.84Zm-.97 2.87-12.6 12.6a1.33 1.33 0 0 1-1.9 0l-7.96-7.96a1.33 1.33 0 0 1 0-1.9l12.6-12.6a1.34 1.34 0 0 1 1.9 0l7.96 7.96a1.33 1.33 0 0 1 0 1.9Z" fill="#00B2FF"/><path d="M22.29 13.68a.68.68 0 0 0-.97-.97l-.39.4a2.63 2.63 0 0 0-3.25.28c-.5.5-.75 1.18-.72 1.9a2.88 2.88 0 0 0 .85 1.9c.55.55.62 1.38.14 1.85-.47.48-1.3.42-1.86-.13-.55-.55-.6-1.39-.13-1.86a.68.68 0 0 0-.97-.97c-.85.85-.94 2.2-.29 3.25l-.47.47a.68.68 0 0 0 .97.97l.47-.47c.46.29.97.43 1.48.43.65 0 1.29-.24 1.77-.72 1-1 .94-2.7-.14-3.79a1.51 1.51 0 0 1-.45-1c-.02-.33.1-.64.31-.86.48-.47 1.31-.41 1.86.14s.61 1.38.14 1.86a.68.68 0 0 0 .97.96c.85-.85.94-2.2.29-3.25l.39-.4ZM15.37 25.01l-3.5-3.51a.68.68 0 0 0-.98.97l3.51 3.5a.68.68 0 0 0 .97 0 .68.68 0 0 0 0-.96ZM9.99 19.63a.69.69 0 0 0-.97 0 .69.69 0 0 0 0 .96.69.69 0 0 0 .97 0 .69.69 0 0 0 0-.96Z" fill="#00B2FF"/></symbol></svg>