<svg xmlns="http://www.w3.org/2000/svg" xmlns:xlink="http://www.w3.org/1999/xlink"><symbol id="email"><path d="M18.06 0H2.95C1.6 0 .5 1.44.5 3.21V16.8C.5 18.56 1.6 20 2.95 20h15.1c1.35 0 2.45-1.44 2.45-3.21V3.22C20.5 1.45 19.4 0 18.06 0Zm1.33 16.79c0 .96-.6 1.74-1.33 1.74H2.95c-.74 0-1.33-.78-1.33-1.74V3.22c0-.96.6-1.75 1.33-1.75h15.1c.74 0 1.33.79 1.33 1.75v13.57Z" fill="#00B2FF"/><path d="m13.11 9.83 4.9-5.76a.9.9 0 0 0 .04-1.04c-.21-.3-.56-.33-.8-.06l-6.74 7.96-1.32-1.54v-.02a.95.95 0 0 0-.1-.1l-5.35-6.3c-.23-.27-.58-.25-.79.06A.9.9 0 0 0 3 4.07l4.94 5.81-4.92 6.06a.9.9 0 0 0-.03 1.04c.11.15.26.24.41.24a.5.5 0 0 0 .38-.2l5-6.15 1.36 1.6c.11.12.24.18.37.18.14 0 .27-.07.38-.2l1.4-1.63 4.97 6.2c.1.14.24.2.38.2a.5.5 0 0 0 .4-.22.9.9 0 0 0-.01-1.04L13.1 9.83Z" fill="#00B2FF"/></symbol><symbol id="icon-close" viewBox="0 0 20 20"><path d="M.293 18.291a1 1 0 101.414 1.414L10 11.413l8.292 8.292a1 1 0 101.414-1.414l-8.292-8.292 8.292-8.292A1 1 0 1018.291.293L9.999 8.585 1.707.293A1 1 0 10.293 1.707L8.585 10 .293 18.291z"/></symbol><symbol id="icon-facebook"><path fill-rule="evenodd" clip-rule="evenodd" d="M30 15a15 15 0 1 0-30 0 15 15 0 0 0 30 0Zm-11.24-4.67h-1.93c-.52 0-.89.44-.89.99v.86h2.76l-.45 2.8h-2.31v7.5H13.1v-7.5h-1.87v-2.8h1.87v-1.43c.06-1.62.62-3.17 3.38-3.27h2.27v2.85Z" fill="#F8FDFF"/></symbol><symbol id="icon-ok"><path d="M15.17 12.64a2.03 2.03 0 0 0 .02-4.05 2.03 2.03 0 0 0-.02 4.05Z" fill="#F8FDFF"/><path d="M15 0a15 15 0 1 0 0 30 15 15 0 0 0 0-30Zm.21 5.68a4.93 4.93 0 1 1-.04 9.86 4.93 4.93 0 0 1 .04-9.86Zm5.51 11.57-.02.1a1.4 1.4 0 0 1-.64 1.01 9.66 9.66 0 0 1-2.79 1.18c-.08.02-.08.02-.02.09l1.18 1.18 1.5 1.5c.7.7.51 1.88-.39 2.31-.15.09-.32.1-.49.15h-.28c-.02 0-.04 0-.04-.02a1.58 1.58 0 0 1-.88-.45l-2.6-2.6c-.06-.06-.06-.06-.12 0l-2.62 2.62c-.15.15-.3.26-.49.34-.13.07-.28.09-.4.11h-.28l-.11-.02c-.58-.1-.97-.43-1.14-.99a1.37 1.37 0 0 1 .37-1.45l1.07-1.07 1.58-1.59c.07-.06.07-.06-.02-.09l-.08-.02a9.26 9.26 0 0 1-2.68-1.13c-.5-.32-.73-.8-.67-1.37a1.44 1.44 0 0 1 2.21-1.08 6.1 6.1 0 0 0 5.25.62c.52-.17.97-.4 1.44-.66a1.45 1.45 0 0 1 2.16 1.12v.21Z" fill="#F8FDFF"/></symbol><symbol id="icon-vk"><path d="M21.62 17.45c-1.24-1.18-1.33-1.18-.27-2.54 1.33-1.73 3.09-3.91 1.5-3.91h-2.9c-.54 0-.63.36-.8.82-.7 1.73-2.12 4-2.65 3.63-.53-.36-.27-1.72-.27-3.9a.72.72 0 0 0-.17-.73c-.18-.18-.44-.37-.7-.37-.45-.09-.89-.18-1.33-.18-1.68 0-2.82.73-2.2.82 1.14.18 1.05 2.73.79 3.82-.44 1.9-2.2-1.46-3-3.18a.87.87 0 0 0-.88-.73h-2.3c-.35 0-.62.1-.62.36 0 .46 2.2 4.91 4.24 7.19 2.03 2.18 4.06 2 5.47 2 .18 0 .35-.1.44-.19a.7.7 0 0 0 .18-.45c0-1.46.53-2.18 1.5-1.18 1.06 1.09 1.32 1.82 2.64 1.82h2.39c.61 0 .79-.19.79-.46.09-.64-.97-1.82-1.85-2.64ZM15.35 0C23.55.18 30.1 7 30 15.27A14.9 14.9 0 0 1 14.9 30 14.98 14.98 0 0 1 0 15 15.19 15.19 0 0 1 15.35 0Z" fill="#F8FDFF"/></symbol><symbol id="phone"><path d="M16.31 12.39c-.4-.43-.9-.66-1.42-.66-.52 0-1.02.23-1.45.66L12.1 13.7l-.32-.16a5.4 5.4 0 0 1-.42-.23 14.51 14.51 0 0 1-3.48-3.16 8.55 8.55 0 0 1-1.14-1.8c.35-.32.67-.65.98-.96l.36-.36c.88-.89.88-2.04 0-2.92L6.92 2.96l-.4-.4c-.25-.26-.51-.53-.79-.78a2 2 0 0 0-1.41-.62c-.52 0-1.02.21-1.44.62L1.42 3.24C.9 3.77.6 4.43.52 5.2c-.1 1.23.26 2.38.54 3.13.68 1.84 1.7 3.55 3.23 5.38a19.89 19.89 0 0 0 6.63 5.18A10.33 10.33 0 0 0 14.9 20c.98 0 1.8-.35 2.44-1.05l.02-.02c.22-.26.47-.5.74-.76l.55-.55c.42-.43.64-.94.64-1.46s-.23-1.02-.65-1.44l-2.33-2.33Zm1.52 4.44-.52.52c-.27.26-.55.54-.81.84-.43.46-.93.67-1.6.67h-.19a9.18 9.18 0 0 1-3.3-.99c-2.39-1.15-4.49-2.8-6.23-4.88a17.13 17.13 0 0 1-3.05-5.06 6.02 6.02 0 0 1-.47-2.64c.04-.5.23-.9.58-1.25L3.68 2.6c.21-.2.43-.3.65-.3a.9.9 0 0 1 .61.3h.02l.76.76.4.41 1.15 1.15c.45.45.45.86 0 1.31l-.36.36c-.36.37-.7.7-1.06 1.03l-.02.02c-.37.37-.3.72-.22.96l.01.04c.3.73.72 1.41 1.37 2.23a15.5 15.5 0 0 0 3.75 3.41c.18.11.35.2.52.28.16.08.3.15.42.23.02 0 .04.02.05.03.15.07.28.1.42.1a.9.9 0 0 0 .64-.29l1.45-1.44c.14-.15.37-.32.64-.32.26 0 .48.17.6.3l.01.02 2.33 2.32c.44.43.44.88 0 1.32ZM11.3 4.76a5.38 5.38 0 0 1 4.43 4.42c.06.28.3.47.57.47h.1a.57.57 0 0 0 .47-.66 6.5 6.5 0 0 0-5.36-5.36.57.57 0 0 0-.66.47c-.06.3.15.6.46.66Z" fill="#00B2FF"/><path d="M20.5 8.82a10.7 10.7 0 0 0-3.02-5.8c-1.6-1.6-3.6-2.64-5.82-3.01a.57.57 0 1 0-.18 1.12 9.6 9.6 0 0 1 7.89 7.88c.04.28.28.47.56.47h.1c.3-.05.52-.35.46-.66Z" fill="#00B2FF"/></symbol></svg>