<svg width="40" height="40" fill="none" xmlns="http://www.w3.org/2000/svg"><path d="M27.558 10H12.446C11.096 10 10 11.441 10 13.214v13.572C10 28.56 11.097 30 12.446 30h15.108C28.904 30 30 28.559 30 26.786V13.22C30.004 11.446 28.907 10 27.558 10Zm1.329 16.786c0 .963-.596 1.746-1.329 1.746H12.446c-.733 0-1.329-.783-1.329-1.746V13.22c0-.962.596-1.745 1.329-1.745h15.108c.733 0 1.329.783 1.329 1.745v13.567h.004Z" fill="#00B2FF"/><path d="m22.613 19.831 4.892-5.764c.227-.271.248-.734.041-1.038-.207-.3-.559-.326-.79-.054L20.01 20.93l-1.316-1.544c-.004-.006-.008-.011-.008-.017a.942.942 0 0 0-.091-.103l-5.355-6.297c-.232-.272-.583-.245-.79.06-.207.304-.186.767.045 1.038l4.95 5.813-4.929 6.064c-.223.277-.236.739-.025 1.038.112.152.26.234.41.234a.495.495 0 0 0 .38-.196l5.004-6.15 1.357 1.593a.49.49 0 0 0 .373.185.49.49 0 0 0 .372-.19l1.395-1.642 4.974 6.21a.493.493 0 0 0 .384.2.505.505 0 0 0 .406-.228c.211-.293.203-.76-.02-1.038l-4.913-6.129Z" fill="#00B2FF"/></svg>