<svg width="40" height="40" fill="none" xmlns="http://www.w3.org/2000/svg"><path d="M25.815 22.39c-.41-.427-.905-.655-1.43-.655-.519 0-1.018.224-1.445.65l-1.336 1.33c-.11-.06-.22-.114-.325-.17a5.407 5.407 0 0 1-.419-.223c-1.25-.793-2.388-1.828-3.479-3.166-.528-.667-.883-1.228-1.141-1.798.347-.317.668-.646.98-.962l.356-.36c.887-.886.887-2.034 0-2.92l-1.154-1.152c-.131-.131-.267-.267-.393-.402a20 20 0 0 0-.795-.785c-.41-.405-.9-.62-1.416-.62-.516 0-1.015.215-1.438.62l-.008.009-1.437 1.448a3.086 3.086 0 0 0-.918 1.963c-.101 1.232.263 2.38.542 3.131.684 1.845 1.707 3.555 3.233 5.387a19.889 19.889 0 0 0 6.624 5.18c.973.46 2.27 1.004 3.72 1.097.09.004.182.008.267.008.976 0 1.796-.35 2.439-1.047.004-.008.013-.012.017-.021.22-.266.473-.506.74-.764.181-.173.367-.355.55-.544.418-.435.637-.942.637-1.461 0-.523-.224-1.026-.65-1.448l-2.321-2.326Zm1.513 4.444c-.004 0-.004.004 0 0-.165.177-.334.338-.516.515-.274.262-.553.536-.816.844-.426.456-.93.671-1.589.671-.063 0-.131 0-.194-.004-1.256-.08-2.423-.57-3.298-.988a18.774 18.774 0 0 1-6.24-4.88c-1.44-1.734-2.405-3.338-3.043-5.06-.393-1.051-.537-1.87-.473-2.643.042-.493.232-.903.583-1.253l1.442-1.44c.207-.194.427-.3.642-.3.266 0 .482.16.617.296l.013.013c.258.24.503.49.761.755.131.135.266.27.401.41l1.155 1.152c.448.447.448.861 0 1.309-.123.122-.241.244-.364.363-.355.363-.693.7-1.061 1.03-.009.008-.017.012-.021.02-.364.364-.296.718-.22.959l.013.038c.3.726.723 1.41 1.365 2.224l.004.005c1.167 1.435 2.397 2.553 3.754 3.41.174.11.351.199.52.283.152.076.296.148.419.224.017.008.034.021.05.03a.917.917 0 0 0 .419.105c.35 0 .57-.22.642-.291l1.446-1.444c.144-.143.372-.317.639-.317.262 0 .477.165.608.309l.009.008 2.329 2.326c.435.43.435.874.004 1.321ZM20.81 14.758a5.363 5.363 0 0 1 2.916 1.51 5.378 5.378 0 0 1 1.514 2.913.567.567 0 0 0 .562.473.57.57 0 0 0 .567-.667 6.508 6.508 0 0 0-1.83-3.525 6.524 6.524 0 0 0-3.53-1.827.574.574 0 0 0-.66.464.564.564 0 0 0 .46.659ZM29.991 18.822a10.705 10.705 0 0 0-3.014-5.804 10.732 10.732 0 0 0-5.812-3.01.568.568 0 1 0-.186 1.124 9.61 9.61 0 0 1 5.195 2.688 9.557 9.557 0 0 1 2.693 5.188.567.567 0 0 0 .562.473.56.56 0 0 0 .562-.659Z" fill="#00B2FF"/></svg>